<svg id="Layer_1" data-name="Layer 1" xmlns="http://www.w3.org/2000/svg" viewBox="0 0 216 216"><defs><style>.cls-1{fill:#779190;}.cls-2{font-size:12.95px;fill:#161717;}.cls-2,.cls-5{font-family:Helvetica-Bold, Helvetica;font-weight:700;}.cls-3{fill:#303030;}.cls-4{fill:#fff;stroke:#fff;stroke-miterlimit:10;stroke-width:0.25px;}.cls-5{font-size:10.34px;fill:#fdfefe;}</style></defs><title>addService</title><rect class="cls-1" x="29.94" y="70.85" width="164.11" height="21.87"/><text class="cls-2" transform="translate(29.94 66.04)">Add Services</text><circle class="cls-3" cx="177.46" cy="81.43" r="5.32"/><line class="cls-4" x1="173.15" y1="81.43" x2="181.76" y2="81.43"/><line class="cls-4" x1="177.46" y1="77.13" x2="177.46" y2="85.74"/><text class="cls-5" transform="translate(38.24 86.61)">06234 FLUSH and Replace</text><rect class="cls-1" x="29.94" y="95.75" width="164.11" height="21.87"/><circle class="cls-3" cx="177.46" cy="106.34" r="5.32"/><line class="cls-4" x1="173.15" y1="106.34" x2="181.76" y2="106.34"/><line class="cls-4" x1="177.46" y1="102.03" x2="177.46" y2="110.65"/><text class="cls-5" transform="translate(38.24 111.52)">06234 FLUSH and Replace</text><rect class="cls-1" x="29.94" y="120.66" width="164.11" height="21.87"/><circle class="cls-3" cx="177.46" cy="131.25" r="5.32"/><line class="cls-4" x1="173.15" y1="131.25" x2="181.76" y2="131.25"/><line class="cls-4" x1="177.46" y1="126.94" x2="177.46" y2="135.55"/><text class="cls-5" transform="translate(38.24 136.42)">06234 FLUSH and Replace</text><rect class="cls-1" x="29.94" y="145.57" width="164.11" height="21.87"/><circle class="cls-3" cx="177.46" cy="156.16" r="5.32"/><line class="cls-4" x1="173.15" y1="156.16" x2="181.76" y2="156.16"/><line class="cls-4" x1="177.46" y1="151.85" x2="177.46" y2="160.46"/><text class="cls-5" transform="translate(38.24 161.33)">06234 FLUSH and Replace</text></svg>