<svg id="Layer_1" data-name="Layer 1" xmlns="http://www.w3.org/2000/svg" viewBox="0 0 216 216"><defs><style>.cls-1{fill:#40403f;}.cls-2{fill:#fcfcfc;}.cls-3{fill:#fff;}.cls-4{fill:#565656;}.cls-5{fill:#999998;}.cls-6,.cls-7{font-size:11.57px;fill:#fdfefe;font-family:Helvetica-Bold, Helvetica;font-weight:700;}.cls-7{opacity:0.4;}</style></defs><title>laneInspec</title><rect class="cls-1" x="33.75" y="60.79" width="168.8" height="118.11"/><g id="BMyN3D"><path class="cls-2" d="M99.65,134.2h1c.78,0,1.51.12,1.52-1.11s-.65-1.29-1.54-1.26c-.68,0-1.37,0-2.05,0s-1.37.08-1.39,1.15.5,1.31,1.41,1.22C98.92,134.18,99.29,134.2,99.65,134.2Z"/><path class="cls-2" d="M141.85,166.58a13.45,13.45,0,0,1-.69,1.37,4.39,4.39,0,0,1-3.23,2.11,19.8,19.8,0,0,1-2.42.16q-20.89,0-41.77,0a12.92,12.92,0,0,1-3.47-.39A3.66,3.66,0,0,1,87.53,167c0-.17-.24-.31-.36-.47q0-13.73,0-27.46c.22-.4.43-.81.66-1.21,1.05-1.83,2.83-2.35,4.74-2.39,3.48-.08,7,0,10.45,0a1.56,1.56,0,0,0,1.71-1c.26-.62.79-1.14,1-1.77.68-1.71,1.88-2.22,3.69-2.17,4.53.12,9.07.07,13.6.05a2.09,2.09,0,0,1,2.14,1.22c.49,1,1.15,1.86,1.66,2.82a1.52,1.52,0,0,0,1.57.86c2.67,0,5.35-.08,8,0,1.95.07,3.76.58,4.8,2.49l.6,1.1Zm-27.36,1.31h21.86c2,0,3-.91,3-2.8q0-12.27,0-24.53a2.28,2.28,0,0,0-2.54-2.54c-3.16,0-6.32-.06-9.47,0a2.1,2.1,0,0,1-2.13-1.21,30.24,30.24,0,0,0-2.11-3.25,1.69,1.69,0,0,0-1.17-.62c-4.17,0-8.34-.05-12.51,0a1.9,1.9,0,0,0-1.31.79,29.05,29.05,0,0,0-1.84,3.27,1.65,1.65,0,0,1-1.72,1c-3.93,0-7.85,0-11.78,0-1.88,0-3.16.76-3.13,3.14.08,7.85,0,15.71,0,23.56,0,2.35.82,3.2,3.2,3.2Q103.67,167.91,114.48,167.89Z"/><path class="cls-2" d="M99.65,134.2c-.36,0-.73,0-1.09,0-.91.08-1.42-.13-1.41-1.22s.57-1.18,1.39-1.15,1.37,0,2.05,0c.89,0,1.54,0,1.54,1.26s-.74,1.12-1.52,1.11h-1Z"/><path class="cls-2" d="M104.67,151.62c-.2-6,5.13-11,10.82-11.09a11.13,11.13,0,0,1,.77,22.25A11.08,11.08,0,0,1,104.67,151.62Zm19.76,0a8.68,8.68,0,0,0-8.64-8.76,8.73,8.73,0,1,0,8.64,8.76Z"/><path class="cls-2" d="M129.39,145.33a2.38,2.38,0,1,1,0-4.75,2.38,2.38,0,1,1,0,4.75Z"/></g><rect class="cls-3" x="178.26" y="156.71" width="8.93" height="8.93"/><rect class="cls-3" x="188.61" y="156.71" width="8.93" height="8.93"/><rect class="cls-3" x="178.26" y="166.6" width="8.93" height="8.93"/><rect class="cls-3" x="188.61" y="166.6" width="8.93" height="8.93"/><rect class="cls-4" x="33.75" y="67.01" width="168.8" height="21.47"/><rect class="cls-5" x="33.75" y="95.55" width="168.8" height="24.31"/><text class="cls-6" transform="translate(47.73 82)">Lane Inspection</text><text class="cls-7" transform="translate(47.73 112.43)">Damage Inspection</text></svg>