<svg id="Layer_1" data-name="Layer 1" xmlns="http://www.w3.org/2000/svg" viewBox="0 0 216 216"><defs><style>.cls-1,.cls-17,.cls-4{fill:#303030;}.cls-1{opacity:0.79;}.cls-2{fill:#40403f;}.cls-3{font-size:10.58px;}.cls-20,.cls-3,.cls-5{fill:#fdfefe;font-family:Helvetica-Bold, Helvetica;}.cls-11,.cls-15,.cls-20,.cls-3,.cls-5{font-weight:700;}.cls-4{opacity:0.18;}.cls-5{font-size:7.29px;}.cls-11,.cls-15,.cls-18,.cls-6{fill:#fff;}.cls-12,.cls-16,.cls-18,.cls-6{stroke:#fff;}.cls-12,.cls-16,.cls-18,.cls-6,.cls-7{stroke-miterlimit:10;}.cls-12,.cls-16,.cls-7{fill:none;}.cls-7{stroke:#3d3f3f;}.cls-12,.cls-18,.cls-7{stroke-width:0.25px;}.cls-8{letter-spacing:-0.07em;}.cls-9{fill:#b4bfbf;}.cls-10,.cls-11{font-size:7.34px;}.cls-10{fill:#231f20;font-family:CourierNewPSMT, Courier New;}.cls-11,.cls-15{font-family:CourierNewPS-BoldMT, Courier New;}.cls-13{fill:#505251;}.cls-14{fill:#4f4f4f;}.cls-15{font-size:15.27px;}.cls-19{fill:#898989;}.cls-20{font-size:14.86px;}</style></defs><title>serviceSummary</title><rect class="cls-1" x="19.31" y="89.89" width="182.78" height="11.29"/><rect class="cls-1" x="19.31" y="54.68" width="182.78" height="11.29"/><rect class="cls-2" x="19.16" y="27.6" width="181.41" height="16.43"/><text class="cls-3" transform="translate(23.67 39.45)">Services</text><rect class="cls-4" x="19.31" y="43.5" width="135.77" height="10.81"/><text class="cls-5" transform="translate(26.64 51.56)">06234 FLUSH and Replace</text><text class="cls-5" transform="translate(26.64 62.99)">06234 FLUSH and Replace</text><rect class="cls-4" x="19.31" y="66.56" width="135.77" height="10.81"/><text class="cls-5" transform="translate(26.64 74.51)">06234 FLUSH and Replace</text><rect class="cls-4" x="19.31" y="77.96" width="135.77" height="10.81"/><text class="cls-5" transform="translate(26.64 86.94)">06234 FLUSH and Replace</text><text class="cls-5" transform="translate(26.64 98.11)">06234 FLUSH and Replace</text><rect class="cls-2" x="19.31" y="101.17" width="182.78" height="98.03"/><line class="cls-6" x1="204.83" y1="142.4" x2="204.83" y2="162.65"/><line class="cls-7" x1="44.45" y1="107.74" x2="200.57" y2="108.57"/><text class="cls-5" transform="translate(106.38 155.65) scale(0.98 1)"> <tspan class="cls-8" x="2.03" y="0">T</tspan><tspan x="5.94" y="0">otal :</tspan></text><circle class="cls-9" cx="163.66" cy="50.07" r="3.77"/><text class="cls-10" transform="translate(174.34 51.52)">$40.00</text><text class="cls-11" transform="translate(174.34 63.18)">$40.00</text><text class="cls-10" transform="translate(174.34 74.47)">$40.00</text><text class="cls-10" transform="translate(174.34 86.89)">$40.00</text><text class="cls-11" transform="translate(174.34 98.07)">$40.00</text><line class="cls-12" x1="165.74" y1="50.34" x2="161.57" y2="50.34"/><circle class="cls-13" cx="163.66" cy="60.57" r="3.77"/><line class="cls-12" x1="163.66" y1="58.76" x2="163.66" y2="62.93"/><line class="cls-12" x1="165.74" y1="60.85" x2="161.57" y2="60.85"/><circle class="cls-9" cx="163.66" cy="72.94" r="3.77"/><line class="cls-12" x1="165.74" y1="73.22" x2="161.57" y2="73.22"/><circle class="cls-14" cx="163.66" cy="83.44" r="3.77"/><line class="cls-12" x1="163.66" y1="81.63" x2="163.66" y2="85.8"/><line class="cls-12" x1="165.74" y1="83.72" x2="161.57" y2="83.72"/><text class="cls-15" transform="translate(135.5 158.53)">$90.00</text><line class="cls-16" x1="32.4" y1="141.99" x2="199.15" y2="141.99"/><text class="cls-5" transform="translate(26.64 113.69)">Subtotal</text><text class="cls-5" transform="translate(26.64 128.13)">Shop Chargers</text><text class="cls-11" transform="translate(174.34 130.51)">$10.00</text><circle class="cls-17" cx="72.46" cy="110.7" r="5.77"/><line class="cls-18" x1="67.79" y1="110.7" x2="77.12" y2="110.7"/><line class="cls-18" x1="72.46" y1="106.04" x2="72.46" y2="115.37"/><circle class="cls-17" cx="113.99" cy="132.28" r="3.75"/><line class="cls-18" x1="110.95" y1="132.28" x2="117.02" y2="132.28"/><line class="cls-18" x1="113.99" y1="129.25" x2="113.99" y2="135.32"/><circle class="cls-17" cx="161.46" cy="132.28" r="3.75"/><line class="cls-18" x1="158.43" y1="132.28" x2="164.5" y2="132.28"/><line class="cls-18" x1="161.46" y1="129.25" x2="161.46" y2="135.32"/><rect class="cls-19" x="49.29" y="172.71" width="128.27" height="19.8"/><text class="cls-20" transform="translate(72.05 187.2)">Create RO</text></svg>